<?xml version="1.0" encoding="UTF-8"?>
<svg version="1.1" xmlns="http://www.w3.org/2000/svg" width="242" height="250">
<path d="M0 0 C19.14 0 38.28 0 58 0 C58 11.22 58 22.44 58 34 C64.373125 33.9690625 64.373125 33.9690625 70.875 33.9375 C103.37740552 33.89417099 103.37740552 33.89417099 115 37 C116 38 116 38 116.12025452 39.79066467 C116.11803391 40.57009933 116.11581329 41.349534 116.11352539 42.15258789 C116.11344986 43.03342545 116.11337433 43.914263 116.11329651 44.8217926 C116.10813522 45.77907761 116.10297394 46.73636261 116.09765625 47.72265625 C116.09553383 49.18547279 116.09553383 49.18547279 116.09336853 50.67784119 C116.08775133 53.80609143 116.07519593 56.93427123 116.0625 60.0625 C116.05748722 62.17773334 116.05292393 64.29296781 116.04882812 66.40820312 C116.03862531 71.60551801 116.01905331 76.80267975 116 82 C127.22 82 138.44 82 150 82 C150 101.14 150 120.28 150 140 C138.78 140 127.56 140 116 140 C115.67 143.96 115.34 147.92 115 152 C108.63221657 181.2426106 86.49239238 203.02120821 62.1171875 218.875 C60 220 60 220 58 220 C58 229.9 58 239.8 58 250 C38.86 250 19.72 250 0 250 C0 240.1 0 230.2 0 220 C-1.65 219.34 -3.3 218.68 -5 218 C-7.24589939 216.56722273 -9.40599386 215.11807657 -11.5625 213.5625 C-12.17383789 213.12220459 -12.78517578 212.68190918 -13.41503906 212.22827148 C-35.21844574 196.22009965 -52.77776225 175.34431092 -57.7734375 148.2109375 C-58.05255045 145.48718011 -58 142.73802088 -58 140 C-69.22 140 -80.44 140 -92 140 C-92 120.86 -92 101.72 -92 82 C-80.78 82 -69.56 82 -58 82 C-58 67.48 -58 52.96 -58 38 C-51.31208457 35.32483383 -44.88770362 34.81512756 -37.75 34.4375 C-36.56313599 34.37381226 -36.56313599 34.37381226 -35.35229492 34.30883789 C-23.57618656 33.75391935 -11.78506017 33.94017736 0 34 C0 22.78 0 11.56 0 0 Z " fill="#144269" transform="translate(92,0)"/>
<path d="M0 0 C2.34295664 -0.00067596 4.68591322 -0.00164841 7.02886963 -0.00289917 C11.91345901 -0.00436357 16.79802997 -0.00226319 21.68261719 0.00244141 C27.87909293 0.00812513 34.07552522 0.00486017 40.27199936 -0.00113106 C45.10419021 -0.00478178 49.93637113 -0.00357739 54.76856232 -0.00100327 C57.05023453 -0.00034574 59.33190771 -0.00112026 61.6135788 -0.00348282 C76.23529493 -0.01530182 90.78995377 0.33718968 105.390625 1.1328125 C105.48372538 13.52091605 105.55459201 25.90893496 105.59787369 38.29731846 C105.61865745 44.05112215 105.64680516 49.80468467 105.69238281 55.55834961 C105.73617109 61.1215899 105.75983118 66.68459972 105.77013397 72.24799919 C105.77746656 74.35965535 105.79178356 76.47130037 105.81354523 78.58285713 C105.9552201 92.91297397 105.65045039 106.31381752 98.390625 119.1328125 C95.7890625 120.7421875 95.7890625 120.7421875 92.765625 121.8828125 C91.78335938 122.26953125 90.80109375 122.65625 89.7890625 123.0546875 C81.0992392 125.81145903 73.1393943 126.48683771 64.015625 126.4453125 C62.77482178 126.44184814 61.53401855 126.43838379 60.25561523 126.43481445 C50.84778998 126.3244641 41.93929193 125.34093869 32.71972656 123.56933594 C13.56912117 119.98010298 -8.87766867 116.20605479 -27.28515625 124.80078125 C-30.609375 126.1328125 -30.609375 126.1328125 -32.85546875 126.16015625 C-38.78873069 122.68477119 -41.24842661 111.89537874 -43.06640625 105.58203125 C-44.46793196 99.26004119 -44.75001476 93.14832172 -44.72290039 86.70922852 C-44.72304642 85.7913707 -44.72319244 84.87351288 -44.7233429 83.92784119 C-44.72264993 80.91410911 -44.71488651 77.90043994 -44.70703125 74.88671875 C-44.70516488 72.78922052 -44.70374201 70.69172185 -44.70274353 68.59422302 C-44.6989356 63.08858017 -44.68912009 57.58296392 -44.67803955 52.07733154 C-44.6677883 46.45325073 -44.66323796 40.8291656 -44.65820312 35.20507812 C-44.64749623 24.18097793 -44.63044059 13.15689743 -44.609375 2.1328125 C-41.57220586 0.61422793 -38.36307378 0.75166511 -35.02246094 0.57861328 C-33.83127466 0.51544765 -33.83127466 0.51544765 -32.61602402 0.45100594 C-21.74952172 -0.06846597 -10.87617192 -0.01121528 0 0 Z " fill="#F8FBFC" transform="translate(90.609375,45.8671875)"/>
<path d="M0 0 C19.14 0 38.28 0 58 0 C58 11.22 58 22.44 58 34 C64.373125 33.9690625 64.373125 33.9690625 70.875 33.9375 C103.37740552 33.89417099 103.37740552 33.89417099 115 37 C116 38 116 38 116.12025452 39.79066467 C116.11803391 40.57009933 116.11581329 41.349534 116.11352539 42.15258789 C116.11344986 43.03342545 116.11337433 43.914263 116.11329651 44.8217926 C116.10813522 45.77907761 116.10297394 46.73636261 116.09765625 47.72265625 C116.09553383 49.18547279 116.09553383 49.18547279 116.09336853 50.67784119 C116.08775133 53.80609143 116.07519593 56.93427123 116.0625 60.0625 C116.05748722 62.17773334 116.05292393 64.29296781 116.04882812 66.40820312 C116.03862531 71.60551801 116.01905331 76.80267975 116 82 C127.22 82 138.44 82 150 82 C150 101.14 150 120.28 150 140 C138.78 140 127.56 140 116 140 C115.67 143.96 115.34 147.92 115 152 C108.63221657 181.2426106 86.49239238 203.02120821 62.1171875 218.875 C60 220 60 220 58 220 C58 229.9 58 239.8 58 250 C38.86 250 19.72 250 0 250 C0 240.1 0 230.2 0 220 C-1.65 219.34 -3.3 218.68 -5 218 C-7.24589939 216.56722273 -9.40599386 215.11807657 -11.5625 213.5625 C-12.17383789 213.12220459 -12.78517578 212.68190918 -13.41503906 212.22827148 C-35.21844574 196.22009965 -52.77776225 175.34431092 -57.7734375 148.2109375 C-58.05255045 145.48718011 -58 142.73802088 -58 140 C-69.22 140 -80.44 140 -92 140 C-92 120.86 -92 101.72 -92 82 C-80.78 82 -69.56 82 -58 82 C-58 67.48 -58 52.96 -58 38 C-51.31208457 35.32483383 -44.88770362 34.81512756 -37.75 34.4375 C-36.56313599 34.37381226 -36.56313599 34.37381226 -35.35229492 34.30883789 C-23.57618656 33.75391935 -11.78506017 33.94017736 0 34 C0 22.78 0 11.56 0 0 Z M4 3 C4 14.55 4 26.1 4 38 C1.19113281 37.98839844 -1.61773437 37.97679687 -4.51171875 37.96484375 C-7.27547086 37.9570131 -10.03922167 37.95095922 -12.80297852 37.94506836 C-14.70272386 37.94008384 -16.60246546 37.93329381 -18.50219727 37.92456055 C-37.11072563 37.18638458 -37.11072563 37.18638458 -55 41 C-55 55.52 -55 70.04 -55 85 C-66.22 85 -77.44 85 -89 85 C-89 101.83 -89 118.66 -89 136 C-77.45 136 -65.9 136 -54 136 C-54 139.3 -54 142.6 -54 146 C-51.5811687 162.27213786 -44.47348044 176.79552898 -33.16796875 188.70703125 C-31.26660231 190.71802603 -29.54646875 192.78423402 -27.8125 194.9375 C-19.79629424 204.12273577 -8.45783348 211.87620153 2 218 C2.66 218 3.32 218 4 218 C4 227.57 4 237.14 4 247 C20.5 247 37 247 54 247 C54 237.43 54 227.86 54 218 C56.475 217.01 56.475 217.01 59 216 C66.52856111 211.33288414 73.34696215 206.08838139 79.80859375 200.03125 C81.62995159 198.34300387 83.4785282 196.8315136 85.4375 195.3125 C98.82633351 183.7867353 109.18480695 165.40974651 112 148 C112 144.04 112 140.08 112 136 C123.55 136 135.1 136 147 136 C147 119.17 147 102.34 147 85 C135.45 85 123.9 85 112 85 C112 70.15 112 55.3 112 40 C99.52412866 36.88103217 85.90319769 37.87691273 73.125 37.9375 C71.26171996 37.94252888 69.3984386 37.94708931 67.53515625 37.95117188 C63.0233769 37.96119805 58.51178638 37.98079183 54 38 C54 26.45 54 14.9 54 3 C37.5 3 21 3 4 3 Z " fill="#F1F6F9" transform="translate(92,0)"/>
<path d="M0 0 C0 5.50781426 -5.36492049 9.16997932 -9 13 C-9.61101562 13.67546875 -10.22203125 14.3509375 -10.8515625 15.046875 C-21.0454554 25.91437316 -34.21702984 33.74534661 -47.12597656 40.95019531 C-48.79020793 41.88247708 -50.43927997 42.8417055 -52.0859375 43.8046875 C-52.94445312 44.28164062 -53.80296875 44.75859375 -54.6875 45.25 C-55.39261719 45.64703125 -56.09773438 46.0440625 -56.82421875 46.453125 C-62.72861223 47.93717363 -69.47114076 42.77857848 -74.5 40 C-75.37914062 39.51523193 -76.25828125 39.03046387 -77.1640625 38.53100586 C-86.37799658 33.36075987 -95.6849612 27.71947605 -103 20 C-96.94192495 19.79921808 -91.58911013 20.48516065 -85.6875 21.8125 C-84.85516846 21.99337158 -84.02283691 22.17424316 -83.1652832 22.3605957 C-77.77354168 23.54995817 -72.44805688 24.91082956 -67.1328125 26.40625 C-56.56308463 29.34873834 -45.83715326 29.09773008 -36 24 C-33.97485847 22.445924 -32.61225829 21.00142409 -31 19 C-31.97582031 19.32097656 -32.95164062 19.64195312 -33.95703125 19.97265625 C-47.50831525 23.8080535 -61.58645859 20.36029355 -74.72680664 16.63305664 C-81.88087881 14.64073475 -88.37540154 13.70044221 -95.8125 13.8125 C-97.06063477 13.8134668 -97.06063477 13.8134668 -98.33398438 13.81445312 C-102.7838803 13.80072389 -102.7838803 13.80072389 -107.13061523 14.609375 C-107.74751221 14.73828125 -108.36440918 14.8671875 -109 15 C-111.140625 13.41796875 -111.140625 13.41796875 -113.25 11.1875 C-113.95640625 10.45917969 -114.6628125 9.73085937 -115.390625 8.98046875 C-117 7 -117 7 -117 5 C-102.81287716 -2.09356142 -75.06730233 5.4598422 -60.04296875 8.28515625 C-39.3315584 12.12889547 -19.48105887 11.51917616 -1 1 C-0.67 0.67 -0.34 0.34 0 0 Z " fill="#F4F9FB" transform="translate(181,175)"/>
<path d="M0 0 C3.63 0 7.26 0 11 0 C12.82645198 6.08532832 14.23769558 12.23899159 15.625 18.4375 C15.96917969 19.96407227 15.96917969 19.96407227 16.3203125 21.52148438 C16.88198992 24.01392792 17.4418374 26.50676742 18 29 C18.33 29 18.66 29 19 29 C19.26478149 27.73555054 19.26478149 27.73555054 19.53491211 26.44555664 C20.18979069 23.32707696 20.84801579 20.20932832 21.50854492 17.09204102 C21.79407634 15.74108903 22.07826047 14.38985156 22.36108398 13.03833008 C22.76714908 11.09903144 23.17841675 9.16082443 23.58984375 7.22265625 C23.83597412 6.05484619 24.08210449 4.88703613 24.33569336 3.68383789 C25 1 25 1 26 0 C29.63 0 33.26 0 37 0 C37 16.83 37 33.66 37 51 C34.03 51 31.06 51 28 51 C27.505 39.12 27.505 39.12 27 27 C25.39803507 33.77564671 25.39803507 33.77564671 23.79907227 40.55200195 C23.59854248 41.39722412 23.3980127 42.24244629 23.19140625 43.11328125 C22.88505249 44.40939331 22.88505249 44.40939331 22.57250977 45.73168945 C22.12401975 47.50862794 21.57953893 49.26138322 21 51 C19.35 51 17.7 51 16 51 C13.08971699 43.10066041 11.5625586 35.25923831 10 27 C9.67 34.92 9.34 42.84 9 51 C6.03 51 3.06 51 0 51 C0 34.17 0 17.34 0 0 Z " fill="#1C486C" transform="translate(118,85)"/>
<path d="M0 0 C0.69867188 -0.01933594 1.39734375 -0.03867188 2.1171875 -0.05859375 C5.73871908 -0.02442836 7.76819408 0.45582962 10.70336914 2.59790039 C13.8327353 6.72259593 13.67627325 9.68227861 13.55859375 14.72265625 C13.55509666 16.0295768 13.55509666 16.0295768 13.55152893 17.36289978 C13.54181053 19.19947135 13.52006727 21.03601379 13.48706055 22.87231445 C13.43760379 25.68160424 13.42557517 28.48914201 13.41992188 31.29882812 C13.4058366 33.08595611 13.38963245 34.87306891 13.37109375 36.66015625 C13.36573105 37.49877701 13.36036835 38.33739777 13.35484314 39.20143127 C13.33885574 39.98582077 13.32286835 40.77021027 13.30639648 41.57836914 C13.29043678 42.60831749 13.29043678 42.60831749 13.27415466 43.65907288 C12.9437329 46.02848398 12.26557754 47.59712393 11 49.625 C7.29182221 52.09711853 4.3574099 51.99230992 0.0625 52 C-0.65357422 52.02449219 -1.36964844 52.04898438 -2.10742188 52.07421875 C-5.6576512 52.09396053 -7.60119206 51.93511305 -10.44140625 49.7265625 C-14.73352638 43.9391925 -13.30540729 35.62398894 -13.35009766 28.65893555 C-13.36665332 26.76655781 -13.39393835 24.8742425 -13.43212891 22.98217773 C-13.48694472 20.25211186 -13.50877818 17.5235111 -13.5234375 14.79296875 C-13.54610687 13.95009811 -13.56877625 13.10722748 -13.59213257 12.23881531 C-13.57660908 7.9140966 -13.39641206 6.1487549 -10.70556641 2.59350586 C-7.1708229 0.02171043 -4.21495017 -0.11664991 0 0 Z " fill="#1E496E" transform="translate(99,84.375)"/>
<path d="M0 0 C0.70769531 -0.03287109 1.41539062 -0.06574219 2.14453125 -0.09960938 C5.82102046 -0.13726429 7.84016735 0.23026253 10.83056641 2.40600586 C13.94621004 6.52251437 13.81766338 9.47170067 13.71875 14.5 C13.71879028 15.36890869 13.71883057 16.23781738 13.71887207 17.13305664 C13.71352395 18.96540583 13.69597136 20.79775499 13.66699219 22.62988281 C13.62513535 25.4284504 13.6259261 28.22460959 13.6328125 31.0234375 C13.62231914 32.80730832 13.60938025 34.59116679 13.59375 36.375 C13.59354858 37.20845947 13.59334717 38.04191895 13.59313965 38.90063477 C13.49950362 43.51606135 13.1973676 46.7390787 10.125 50.4375 C6.55969546 51.62593485 3.50787797 51.75318274 -0.25 51.875 C-1.55710938 51.93558594 -2.86421875 51.99617188 -4.2109375 52.05859375 C-8.19025231 51.38406171 -9.41491597 50.44627716 -11.85296631 47.30610657 C-13.75160549 43.83478299 -13.52701516 40.33300103 -13.43359375 36.4609375 C-13.43009666 35.18943344 -13.43009666 35.18943344 -13.42652893 33.89224243 C-13.41682439 32.10872262 -13.39511337 30.32523211 -13.36206055 28.54199219 C-13.31252703 25.81398859 -13.30056924 23.08778843 -13.29492188 20.359375 C-13.28083908 18.62237667 -13.26463582 16.88539396 -13.24609375 15.1484375 C-13.24073105 14.33482758 -13.23536835 13.52121765 -13.22984314 12.68295288 C-13.07744283 5.42735425 -13.07744283 5.42735425 -10.875 2.4375 C-7.18796857 -0.02052095 -4.27325909 0.03464805 0 0 Z " fill="#19466A" transform="translate(174.875,84.5625)"/>
<path d="M0 0 C3.59277471 1.10453547 3.85709167 1.62329596 6 5 C6.45844396 9.05222306 6.34942704 12.94276386 6 17 C3.03 17 0.06 17 -3 17 C-3.33 14.36 -3.66 11.72 -4 9 C-5.98 9 -7.96 9 -10 9 C-10 19.89 -10 30.78 -10 42 C-8.02 42 -6.04 42 -4 42 C-3.67 39.36 -3.34 36.72 -3 34 C-0.03 34 2.94 34 6 34 C6.05429959 35.74965358 6.09292823 37.49979787 6.125 39.25 C6.14820312 40.22453125 6.17140625 41.1990625 6.1953125 42.203125 C5.99429463 45.08170091 5.59161629 46.61784582 4 49 C0.28435162 51.47709892 -2.637421 51.33174834 -6.9375 51.3125 C-7.65357422 51.32861328 -8.36964844 51.34472656 -9.10742188 51.36132812 C-12.30255935 51.36428933 -14.61236095 51.21149587 -17.44140625 49.66796875 C-22.09789056 44.68471361 -20.30829881 34.44409521 -20.35009766 27.95849609 C-20.36666885 26.07295397 -20.3939743 24.18747497 -20.43212891 22.30224609 C-20.48693198 19.57877136 -20.50877386 16.85676451 -20.5234375 14.1328125 C-20.54610687 13.29307892 -20.56877625 12.45334534 -20.59213257 11.58816528 C-20.57653786 7.26126721 -20.39685733 5.52036412 -17.68969727 1.97070312 C-12.50296695 -1.82954078 -6.09161775 -0.78816984 0 0 Z " fill="#184569" transform="translate(74,85)"/>
<path d="M0 0 C11.90399444 2.58112501 22.97527154 2.22192944 34.64038086 -1.42749023 C30.25073816 4.60826847 25.07731936 8.19577548 17.64038086 9.57250977 C6.38702681 10.42781355 -4.06016109 9.29128259 -15.10961914 7.07250977 C-27.54432666 4.58660334 -39.1359478 2.40871213 -51.40649414 6.91625977 C-53.35961914 7.57250977 -53.35961914 7.57250977 -56.35961914 7.57250977 C-41.01932794 -9.98743771 -20.25754771 -4.43883511 0 0 Z " fill="#184469" transform="translate(130.359619140625,152.427490234375)"/>
<path d="M0 0 C3.5 0.125 3.5 0.125 4.5 1.125 C4.60082764 3.56160446 4.63972603 5.96924701 4.6328125 8.40625 C4.63376923 9.13493286 4.63472595 9.86361572 4.63571167 10.61437988 C4.63639335 12.1577971 4.63453988 13.70121717 4.63037109 15.24462891 C4.62502262 17.614974 4.63031642 19.98512959 4.63671875 22.35546875 C4.63605797 23.85156292 4.6347768 25.34765697 4.6328125 26.84375 C4.63483673 27.55728638 4.63686096 28.27082275 4.63894653 29.00598145 C4.61495191 34.01004809 4.61495191 34.01004809 3.5 35.125 C0 35.25 0 35.25 -3.5 35.125 C-5.20492881 33.42007119 -4.6280442 31.27965739 -4.63894653 29.00598145 C-4.6369223 28.29244507 -4.63489807 27.57890869 -4.6328125 26.84375 C-4.63376923 26.11506714 -4.63472595 25.38638428 -4.63571167 24.63562012 C-4.63639335 23.0922029 -4.63453988 21.54878283 -4.63037109 20.00537109 C-4.62502262 17.635026 -4.63031642 15.26487041 -4.63671875 12.89453125 C-4.63605797 11.39843708 -4.6347768 9.90234303 -4.6328125 8.40625 C-4.63483673 7.69271362 -4.63686096 6.97917725 -4.63894653 6.24401855 C-4.60979574 0.16463556 -4.60979574 0.16463556 0 0 Z " fill="#F0F5F8" transform="translate(175.5,92.875)"/>
<path d="M0 0 C3 0.125 3 0.125 4 1.125 C4.08847743 3.64594076 4.11527301 6.13930893 4.09765625 8.66015625 C4.0962413 9.41340683 4.09482635 10.16665741 4.09336853 10.94273376 C4.08775376 13.3576956 4.07519883 15.77256601 4.0625 18.1875 C4.0574869 19.82096221 4.05292366 21.45442586 4.04882812 23.08789062 C4.03777954 27.10029585 4.02050506 31.11263241 4 35.125 C1.66705225 35.16741723 -0.66702567 35.16592937 -3 35.125 C-4.70492881 33.42007119 -4.1280442 31.27965739 -4.13894653 29.00598145 C-4.1369223 28.29244507 -4.13489807 27.57890869 -4.1328125 26.84375 C-4.13376923 26.11506714 -4.13472595 25.38638428 -4.13571167 24.63562012 C-4.13639335 23.0922029 -4.13453988 21.54878283 -4.13037109 20.00537109 C-4.12502262 17.635026 -4.13031642 15.26487041 -4.13671875 12.89453125 C-4.13605797 11.39843708 -4.1347768 9.90234303 -4.1328125 8.40625 C-4.13483673 7.69271362 -4.13686096 6.97917725 -4.13894653 6.24401855 C-4.10982743 0.17124281 -4.10982743 0.17124281 0 0 Z " fill="#F7FDFE" transform="translate(99,92.875)"/>
<path d="M0 0 C0.33 0 0.66 0 1 0 C1 14.85 1 29.7 1 45 C-3.44761883 45.74126981 -7.06256771 46.11874968 -11.4921875 46.09765625 C-12.5735498 46.09515869 -13.65491211 46.09266113 -14.76904297 46.09008789 C-16.8014917 46.07643188 -16.8014917 46.07643188 -18.875 46.0625 C-23.20625 46.041875 -27.5375 46.02125 -32 46 C-32 61.84 -32 77.68 -32 94 C-21.44 94 -10.88 94 0 94 C0 94.33 0 94.66 0 95 C-11.22 95 -22.44 95 -34 95 C-34 78.17 -34 61.34 -34 44 C-22.78 44 -11.56 44 0 44 C0 29.48 0 14.96 0 0 Z " fill="#44647F" transform="translate(37,41)"/>
<path d="M0 0 C1.50046875 0.00386719 1.50046875 0.00386719 3.03125 0.0078125 C4.0315625 0.00523438 5.031875 0.00265625 6.0625 0 C8.53125 0.1328125 8.53125 0.1328125 9.53125 1.1328125 C9.60450168 3.99548817 9.62363205 6.8335315 9.59375 9.6953125 C9.58923828 10.50162109 9.58472656 11.30792969 9.58007812 12.13867188 C9.56825518 14.13675006 9.55031914 16.13479033 9.53125 18.1328125 C8.21125 18.1328125 6.89125 18.1328125 5.53125 18.1328125 C5.53125 16.1528125 5.53125 14.1728125 5.53125 12.1328125 C3.22125 12.1328125 0.91125 12.1328125 -1.46875 12.1328125 C-0.80875 11.8028125 -0.14875 11.4728125 0.53125 11.1328125 C0.53125 10.4728125 0.53125 9.8128125 0.53125 9.1328125 C2.18125 9.1328125 3.83125 9.1328125 5.53125 9.1328125 C5.53125 7.4828125 5.53125 5.8328125 5.53125 4.1328125 C3.55125 4.1328125 1.57125 4.1328125 -0.46875 4.1328125 C-0.46875 5.4528125 -0.46875 6.7728125 -0.46875 8.1328125 C-1.12875 8.1328125 -1.78875 8.1328125 -2.46875 8.1328125 C-2.79875 9.1228125 -3.12875 10.1128125 -3.46875 11.1328125 C-3.49563151 9.48706684 -3.51509123 7.84119837 -3.53125 6.1953125 C-3.54285156 5.27878906 -3.55445312 4.36226562 -3.56640625 3.41796875 C-3.42958481 0.21634708 -3.20773345 0.17256794 0 0 Z " fill="#194365" transform="translate(101.46875,57.8671875)"/>
<path d="M0 0 C1.50046875 0.00386719 1.50046875 0.00386719 3.03125 0.0078125 C4.0315625 0.00523438 5.031875 0.00265625 6.0625 0 C8.53125 0.1328125 8.53125 0.1328125 9.53125 1.1328125 C9.60438567 3.66330652 9.62372527 6.16586087 9.59375 8.6953125 C9.58923828 9.40623047 9.58472656 10.11714844 9.58007812 10.84960938 C9.56825864 12.61071263 9.55032263 14.37177286 9.53125 16.1328125 C9.20125 16.1328125 8.87125 16.1328125 8.53125 16.1328125 C8.20125 14.1528125 7.87125 12.1728125 7.53125 10.1328125 C7.20125 10.1328125 6.87125 10.1328125 6.53125 10.1328125 C6.53125 8.1528125 6.53125 6.1728125 6.53125 4.1328125 C4.55125 4.1328125 2.57125 4.1328125 0.53125 4.1328125 C0.53125 7.4328125 0.53125 10.7328125 0.53125 14.1328125 C1.52125 14.4628125 2.51125 14.7928125 3.53125 15.1328125 C4.19125 15.7928125 4.85125 16.4528125 5.53125 17.1328125 C-0.62109375 17.23046875 -0.62109375 17.23046875 -2.46875 17.1328125 C-4.22434942 15.37721308 -3.60096919 13.09698808 -3.60546875 10.76171875 C-3.60160156 10.05917969 -3.59773438 9.35664062 -3.59375 8.6328125 C-3.59761719 7.93027344 -3.60148437 7.22773437 -3.60546875 6.50390625 C-3.59330961 0.19331096 -3.59330961 0.19331096 0 0 Z " fill="#194265" transform="translate(125.46875,57.8671875)"/>
<path d="M0 0 C4.62 0 9.24 0 14 0 C14 5.39392058 13.09297444 7.22849162 10.5 11.8125 C10.16613281 12.40998047 9.83226562 13.00746094 9.48828125 13.62304688 C8.66827367 15.08734612 7.83540688 16.54443137 7 18 C5.35 18 3.7 18 2 18 C3.49170266 13.0276578 5.60457417 8.58154261 8 4 C5.36 4 2.72 4 0 4 C0 2.68 0 1.36 0 0 Z " fill="#2C5271" transform="translate(145,58)"/>
<path d="M0 0 C1.98 0 3.96 0 6 0 C6.33 1.65 6.66 3.3 7 5 C7.33 5 7.66 5 8 5 C8.33 7.64 8.66 10.28 9 13 C6.59454362 14.20272819 5.05003047 14.10071472 2.375 14.0625 C1.14910156 14.04896484 1.14910156 14.04896484 -0.1015625 14.03515625 C-1.04128906 14.01775391 -1.04128906 14.01775391 -2 14 C-0.68 13.01 0.64 12.02 2 11 C1.34 10.67 0.68 10.34 0 10 C0 6.7 0 3.4 0 0 Z " fill="#345A7A" transform="translate(126,62)"/>
<path d="M0 0 C1.65 0 3.3 0 5 0 C5 5.94 5 11.88 5 18 C3.35 18 1.7 18 0 18 C0 12.06 0 6.12 0 0 Z " fill="#355A78" transform="translate(83,58)"/>
<path d="M0 0 C0.66 1.65 1.32 3.3 2 5 C4.31 5 6.62 5 9 5 C9 5.33 9 5.66 9 6 C7.37191406 6.16435547 7.37191406 6.16435547 5.7109375 6.33203125 C4.26555848 6.49158608 2.82024949 6.65177611 1.375 6.8125 C0.66214844 6.88275391 -0.05070312 6.95300781 -0.78515625 7.02539062 C-5.46033262 7.5615347 -8.78678797 8.79217568 -13 11 C-13.66 10.67 -14.32 10.34 -15 10 C-5.73972603 0 -5.73972603 0 0 0 Z " fill="#214A6C" transform="translate(89,150)"/>
<path d="M0 0 C1.98 0 3.96 0 6 0 C6 1.65 6 3.3 6 5 C4.35 5 2.7 5 1 5 C1 5.66 1 6.32 1 7 C2.65 7.33 4.3 7.66 6 8 C6 9.65 6 11.3 6 13 C5.67 11.68 5.34 10.36 5 9 C2.69 9 0.38 9 -2 9 C-2.33 8.34 -2.66 7.68 -3 7 C-2.67 6.01 -2.34 5.02 -2 4 C-1.34 4 -0.68 4 0 4 C0 2.68 0 1.36 0 0 Z " fill="#557896" transform="translate(101,62)"/>
<path d="M0 0 C-1.875 3.875 -1.875 3.875 -3 5 C-3.16023562 7.88252645 -3.25954029 10.74378527 -3.31640625 13.62890625 C-3.33718735 14.49313705 -3.35796844 15.35736786 -3.37937927 16.24778748 C-3.44497114 19.01927445 -3.50380418 21.79085921 -3.5625 24.5625 C-3.60567608 26.43685923 -3.64929006 28.31120843 -3.69335938 30.18554688 C-3.80066227 34.79026336 -3.90190215 39.39507858 -4 44 C-4.33 44 -4.66 44 -5 44 C-5.0741916 38.37665694 -5.12862179 32.7535992 -5.16479492 27.12988281 C-5.17987558 25.21707191 -5.2003431 23.30429554 -5.22631836 21.39160156 C-5.26273347 18.6411893 -5.27973349 15.89123446 -5.29296875 13.140625 C-5.30845261 12.28631897 -5.32393646 11.43201294 -5.33988953 10.55181885 C-5.34156563 4.63034329 -5.34156563 4.63034329 -3.60668945 1.42871094 C-2 0 -2 0 0 0 Z " fill="#2E526E" transform="translate(59,86)"/>
<path d="M0 0 C4.29 0 8.58 0 13 0 C12 3 12 3 10 4 C8.29297265 4.06996014 6.58331997 4.08440154 4.875 4.0625 C3.96492187 4.05347656 3.05484375 4.04445313 2.1171875 4.03515625 C1.41851562 4.02355469 0.71984375 4.01195312 0 4 C0 2.68 0 1.36 0 0 Z " fill="#1D4668" transform="translate(145,58)"/>
<path d="M0 0 C-1.09918816 0.98475214 -2.2045602 1.96260473 -3.3125 2.9375 C-4.23482422 3.75541016 -4.23482422 3.75541016 -5.17578125 4.58984375 C-7 6 -7 6 -10 7 C-10.33 6.01 -10.66 5.02 -11 4 C-14.63 3.67 -18.26 3.34 -22 3 C-22 2.67 -22 2.34 -22 2 C-21.14277344 1.95101562 -20.28554687 1.90203125 -19.40234375 1.8515625 C-12.01065271 1.45139263 -12.01065271 1.45139263 -4.8125 -0.125 C-2 -1 -2 -1 0 0 Z " fill="#3C607D" transform="translate(152,194)"/>
<path d="M0 0 C1.4540625 0.0309375 1.4540625 0.0309375 2.9375 0.0625 C2.12708252 0.5790918 1.31666504 1.09568359 0.48168945 1.62792969 C-2.33870568 3.86500723 -2.33870568 3.86500723 -2.72192383 7.27050781 C-2.73763428 8.50639648 -2.75334473 9.74228516 -2.76953125 11.015625 C-2.78465256 11.67584656 -2.79977386 12.33606812 -2.81535339 13.01629639 C-2.858182 15.1153796 -2.86706202 17.2130237 -2.875 19.3125 C-2.89814864 20.73962146 -2.92351477 22.16670879 -2.95117188 23.59375 C-3.01397146 27.08330563 -3.04634791 30.57238132 -3.0625 34.0625 C-3.3925 34.0625 -3.7225 34.0625 -4.0625 34.0625 C-4.08715288 29.38110746 -4.10533739 24.69975241 -4.11743164 20.01831055 C-4.12247157 18.42455386 -4.1293035 16.83080181 -4.13793945 15.23706055 C-4.15001999 12.95099747 -4.15573155 10.66499533 -4.16015625 8.37890625 C-4.16531754 7.66223282 -4.17047882 6.94555939 -4.17579651 6.20716858 C-4.17599263 4.49186328 -4.12442007 2.77668734 -4.0625 1.0625 C-3.0625 0.0625 -3.0625 0.0625 0 0 Z " fill="#E1F2F6" transform="translate(67.0625,92.9375)"/>
<path d="M0 0 C1.65 0 3.3 0 5 0 C5 2.97 5 5.94 5 9 C3.35 9 1.7 9 0 9 C0 6.03 0 3.06 0 0 Z " fill="#E6F2F7" transform="translate(126,62)"/>
<path d="M0 0 C0 4.62 0 9.24 0 14 C-0.33 14 -0.66 14 -1 14 C-1.33 12.02 -1.66 10.04 -2 8 C-2.33 8 -2.66 8 -3 8 C-3 6.02 -3 4.04 -3 2 C-4.98 2 -6.96 2 -9 2 C-9 1.67 -9 1.34 -9 1 C-2.25 0 -2.25 0 0 0 Z " fill="#173E60" transform="translate(135,60)"/>
<path d="M0 0 C0.66 0.33 1.32 0.66 2 1 C-0.97 3.475 -0.97 3.475 -4 6 C-4.99 5.01 -5.98 4.02 -7 3 C-4.66785852 1.79371992 -2.50357861 0.8345262 0 0 Z " fill="#365873" transform="translate(150,193)"/>
<path d="M0 0 C0 3 0 3 -2.5 5.6875 C-3.325 6.450625 -4.15 7.21375 -5 8 C-5 7.34 -5 6.68 -5 6 C-5.99 5.67 -6.98 5.34 -8 5 C-4.04 2.525 -4.04 2.525 0 0 Z " fill="#CFE7F2" transform="translate(181,175)"/>
<path d="M0 0 C0.33 0.66 0.66 1.32 1 2 C0.01 2.495 0.01 2.495 -1 3 C-1.33 3.99 -1.66 4.98 -2 6 C-4.4375 7.75 -4.4375 7.75 -7 9 C-7.66 8.67 -8.32 8.34 -9 8 C-7.87811441 6.85111717 -6.75238316 5.70598863 -5.625 4.5625 C-4.99851562 3.92441406 -4.37203125 3.28632813 -3.7265625 2.62890625 C-2 1 -2 1 0 0 Z " fill="#385870" transform="translate(83,152)"/>
<path d="M0 0 C1.65 0 3.3 0 5 0 C5 1.32 5 2.64 5 4 C3.35 4 1.7 4 0 4 C0 2.68 0 1.36 0 0 Z " fill="#E8F5FA" transform="translate(102,62)"/>
<path d="M0 0 C-2.96278714 1.64599285 -5.61306808 2.65262237 -9 3 C-9.99 2.34 -10.98 1.68 -12 1 C-8.0186217 -0.3271261 -4.14954773 -0.06915913 0 0 Z " fill="#466784" transform="translate(102,148)"/>
<path d="M0 0 C0.8125 1.6875 0.8125 1.6875 1 4 C-1.4375 6.75 -1.4375 6.75 -4 9 C-4.33 7.68 -4.66 6.36 -5 5 C-4.360625 4.731875 -3.72125 4.46375 -3.0625 4.1875 C-0.66868314 3.11332248 -0.66868314 3.11332248 0 0 Z " fill="#335977" transform="translate(190,161)"/>
</svg>
