<svg xmlns="http://www.w3.org/2000/svg" width="815" height="815" viewBox="0 0 815 815"><path stroke="gray" stroke-width="4.99984365" d="M812.5 407.5a405 405 0 0 1-405 405 405 405 0 0 1-405-405 405 405 0 0 1 405-405 405 405 0 0 1 405 405z"/><path fill="#00239c" d="M754.643 407.5A347.143 347.143 0 0 1 407.5 754.643 347.143 347.143 0 0 1 60.357 407.5 347.143 347.143 0 0 1 407.5 60.357 347.143 347.143 0 0 1 754.643 407.5"/><path fill="#fff" d="m624.657 216.379-27.386 58.628C623.5 312.614 638.93 358.225 638.93 407.5c0 41.271-10.8 79.94-29.7 113.496l7.521 86.304c49.564-51.879 80.036-122.271 80.036-199.704 0-73.382-27.193-140.207-72.129-191.217M436.814 637.096V177.904c24.3 3.085 47.443 9.932 68.754 19.96l24.493-52.457c-37.222-17.453-78.782-27.193-122.561-27.193s-85.34 9.74-122.56 27.193l24.492 52.457c21.6-10.125 45.032-16.971 69.622-20.057v459.386c-22.95-2.797-44.936-9.064-65.283-18.032l-5.303 60.268c30.857 11.185 64.221 17.357 99.032 17.357 34.907 0 68.464-6.172 99.418-17.55l-5.304-60.268c-20.153 9.064-41.946 15.236-64.8 18.128M190.343 216.38c-44.936 51.01-72.129 117.835-72.129 191.121 0 77.625 30.568 148.114 80.325 199.993l7.522-86.11c-19.093-33.558-29.99-72.419-29.99-113.883 0-49.275 15.429-94.886 41.658-132.396zm369.225 70.103 43.103-92.475c-14.56-13.307-30.375-25.071-47.442-35.196l-89.293 191.7v136.928l44.743-95.946 24.107 275.882c19.671-9.643 38.089-21.504 54.964-35.196zm-209.347 67.21-90.739-194.688a287.8 287.8 0 0 0-47.346 35.292l43.296 92.861-.096 1.64-29.99 343.382c16.875 13.692 35.293 25.553 54.965 35.196l24.107-275.4 45.996 98.646V353.693z"/></svg>