<svg xmlns="http://www.w3.org/2000/svg" viewBox="0 0 566 566"><linearGradient id="a" x1="91.388" x2="474.607" y1="91.388" y2="474.606" gradientUnits="userSpaceOnUse"><stop offset="0" stop-color="#7fa7ca"/><stop offset=".1" stop-color="#5680b9"/><stop offset=".25" stop-color="#19428e"/></linearGradient><linearGradient id="b" x1="146.767" x2="419.243" y1="146.753" y2="419.228" gradientUnits="userSpaceOnUse"><stop offset=".4" stop-color="#008ccf"/><stop offset=".6" stop-color="#44a4db"/><stop offset="1" stop-color="#63b1dc"/></linearGradient><path fill="#19428e" d="M0 283C0 126.7 126.7 0 283 0s283 126.7 283 283-126.7 283-283 283S0 439.3 0 283"/><path fill="url(#a)" d="M91.4 91.4C40.2 142.6 12 210.6 12 283s28.2 140.4 79.3 191.6C142.6 525.8 210.6 554 283 554s140.4-28.2 191.6-79.4S554 355.4 554 283s-28.2-140.4-79.4-191.6S355.4 12 283 12 142.6 40.2 91.4 91.4"/><path fill="#fff" d="M75.2 283c0 114.6 93.2 207.8 207.8 207.8S490.8 397.6 490.8 283 397.6 75.2 283 75.2 75.2 168.4 75.2 283"/><path fill="#008ccf" d="M83.2 283c0 110.2 89.6 199.8 199.8 199.8S482.8 393.2 482.8 283 393.2 83.2 283 83.2 83.2 172.8 83.2 283"/><path fill="url(#b)" d="M90.3 283c0 106.3 86.4 192.8 192.8 192.8 106.3 0 192.8-86.5 192.8-192.8S389.4 90.2 283.1 90.2C176.7 90.2 90.3 176.7 90.3 283"/><path fill="#fff" d="M164.9 164.1h73l118.8 142c.8.9 2.2.4 2.2-.8V198.6c0-13.6-11-24.6-24.6-24.6H327v-10h74v10h-4.9c-12.2 0-22.1 9.9-22.1 22.1V400h-9.7l-152-181.8c-.4-.5-1.3-.2-1.3.5V359c0 14.4 11.7 26.1 26.1 26.1h5.9v9h-78v-9h8c12.2 0 22.1-9.9 22.1-22.1V197.5L184 184.3l-4.1-4.9c-2.9-3.4-7.1-5.4-11.5-5.4h-3.3v-9.9z"/></svg>