<svg xmlns="http://www.w3.org/2000/svg" width="280.561" height="356.429" viewBox="0 0 550.929 700"><linearGradient id="a" x1="93.088" x2="93.088" y1="120.894" y2="611.188" gradientTransform="scale(.88945 1.12429)" gradientUnits="userSpaceOnUse"><stop offset="1" stop-color="#323935"/><stop offset="1" stop-color="#1e2521"/><stop offset="1" stop-color="#1d2421"/></linearGradient><g fill-rule="evenodd"><path fill="#fff" d="M275.465 0c19.026 0 37.934 2.531 56.327 7.47 65.879 17.691 119.784 64.362 156.66 121.462C530.512 194.059 550.93 272.429 550.93 350c0 75.57-19.038 152.016-58.787 216.263-35.014 56.594-86.336 103.34-149.942 123.412-21.638 6.83-44.075 10.325-66.736 10.325s-45.099-3.496-66.738-10.325C145.121 669.602 93.8 622.857 58.786 566.262 19.037 502.015 0 425.569 0 350 0 272.43 20.418 194.06 62.478 128.931 99.354 71.831 153.26 25.161 219.14 7.47 237.531 2.53 256.439 0 275.465 0"/><path fill="#e7e6e6" d="M549.988 379.038c-4.274 65.904-23.184 131.202-57.845 187.225-35.014 56.594-86.335 103.34-149.941 123.412-21.64 6.83-44.076 10.325-66.737 10.325-22.662 0-45.1-3.496-66.738-10.325C145.121 669.602 93.8 622.857 58.786 566.262 19.036 502.015 0 425.569 0 350 0 272.43 20.418 194.06 62.478 128.931c31.72-49.115 76.04-90.513 129.74-112.39-52.217 22.603-96.111 64.855-126.993 112.432C23.403 193.404 3.098 270.941 3.098 347.685c0 74.764 17.997 150.396 57.52 213.957 34.666 55.747 86.921 102.749 150.033 122.565 21.517 6.756 43.828 9.747 66.363 9.747s44.844-3.458 66.361-10.214c63.249-19.859 114.282-66.106 149.099-122.098 32.35-52.023 51.593-119.007 57.514-182.604"/><path fill="#e7e6e6" d="M276.116 6.286c18.398 0 36.679 2.403 54.464 7.088 64.397 16.965 117.043 62.001 153.068 116.725 41.689 63.326 61.87 139.614 61.87 215.03 0 54.048-9.71 106.734-30.525 155.685 19.214-48.224 28.512-100.478 28.512-152.263 0-75.517-20.137-151.907-61.735-215.317-35.946-54.797-88.477-99.893-152.734-116.881-17.747-4.692-35.987-7.097-54.346-7.097s-36.598 2.405-54.344 7.097C156.088 33.34 103.557 78.436 67.61 133.233 45.977 166.211 30.151 202.7 19.94 240.75c10.195-39.181 26.34-76.771 48.643-110.65 36.025-54.724 88.671-99.76 153.069-116.725 17.785-4.686 36.065-7.088 54.464-7.088"/></g><path fill="url(#a)" d="M300.844 135.92c118.686 0 218.047 123.422 218.047 275.615s-97.644 275.616-218.047 275.616S82.798 563.728 82.798 411.535s99.36-275.616 218.046-275.616" transform="matrix(1.22426 0 0 1.22426 -93.62 -155.274)"/><path fill="#1d2421" fill-rule="evenodd" d="M274.691 18.588c-17.633 0-35.15 2.76-52.194 7.228-62.22 16.312-111.89 59.824-146.681 112.42C35.12 199.754 14.29 273.46 14.29 346.718c0 71.398 16.93 143.786 55.404 204.5 33.069 52.183 82.199 95.744 142.326 114.268 20.095 6.19 41.623 9.363 62.67 9.363 21.046 0 42.574-3.172 62.669-9.363 60.127-18.524 109.257-62.083 142.327-114.268 38.475-60.714 55.404-133.101 55.404-204.5 0-73.258-20.83-146.964-61.524-208.483-34.792-52.597-84.461-96.108-146.68-112.42-17.045-4.468-34.563-7.228-52.196-7.228"/><path fill="#0072b4" fill-rule="evenodd" d="M79.401 132.927a339 339 0 0 0-3.585 5.308C35.12 199.755 14.29 273.461 14.29 346.72c0 71.399 16.93 143.786 55.404 204.5 33.069 52.183 82.199 95.744 142.326 114.268 20.095 6.19 41.623 9.363 62.67 9.363 21.046 0 42.574-3.172 62.669-9.363 60.127-18.524 109.257-62.083 142.327-114.268 38.475-60.714 55.404-133.101 55.404-204.5 0-69.162-18.569-138.72-54.888-198.05 31.485 57.207 47.725 123.03 47.725 188.498 0 72.736-15.482 144.594-52.786 205.45-12.818 20.91-28.313 40.36-46.019 57.368V268.353l-103.532-12.855v404.176a203 203 0 0 1-50.384 6.398c-17.14 0-34.61-2.244-51.309-6.639V255.498l-103.532 12.855v330.743c-17.321-16.795-32.5-35.934-45.095-56.48-37.304-60.856-52.786-132.714-52.552-205.45.23-71.56 19.197-143.546 56.682-204.239"/><g fill-rule="evenodd"><path fill="#fff" d="M47.05 287.975c71.62-21.326 153.309-30.655 229.736-30.482 74.94.169 152.4 8.939 224.382 29.523-85.964-29.432-150.753-38-226.084-38.76-74.562-.754-159.94 14.719-228.034 39.719"/><path fill="#1d2421" d="M241.566 338.873a105.955 105.955 0 0 1 105.955 105.955 105.955 105.955 0 1 1-105.955-105.955"/><path fill="#e1001e" d="M241.566 344.95a99.877 99.877 0 0 1 99.878 99.878 99.877 99.877 0 1 1-99.878-99.877"/><g fill="#fff"><path d="M225.24 384.884c5.488-1.103 10.744-4.27 16.233-9.116 4.362 3.684 9.21 7.239 16.369 9.116-3.636 12.004-10.473 36.614-11.424 57.26 18.436-.835 37.356-5.999 56.797-11.186 2.37 5.548 5.383 11.116 9.817 15.975-4.24 4.497-8.287 9.833-9.817 16.394-18.255-6.385-39.96-10.643-56.801-11.833.81 18.492 5.99 37.47 11.194 56.972-5.548 2.37-11.115 5.383-15.975 9.817-4.497-4.24-9.832-8.287-16.393-9.817 6.405-18.315 10.67-40.104 11.844-56.969-18.757 1.275-37.527 5.324-56.984 11.83-1.49-5.231-4.971-10.978-9.817-16.467 3.556-4.233 7.682-9.364 9.817-16.136 12.035 3.646 36.344 10.508 56.958 11.432-1.289-18.764-5.332-37.874-11.818-57.272"/><path d="M180.568 412.034a8.077 8.077 0 0 1 8.077 8.077 8.077 8.077 0 1 1-8.077-8.077M180.568 465.56a8.077 8.077 0 0 1 8.077 8.077 8.077 8.077 0 1 1-8.077-8.077M159.408 438.957a8.077 8.077 0 0 1 8.077 8.077 8.077 8.077 0 1 1-8.077-8.077M206.646 507.646a8.077 8.077 0 0 1 8.077-8.077 8.077 8.077 0 1 1-8.077 8.077M260.172 507.646a8.077 8.077 0 0 1 8.078-8.077 8.077 8.077 0 1 1-8.078 8.077M233.569 528.806a8.077 8.077 0 0 1 8.077-8.077 8.077 8.077 0 1 1-8.077 8.077M206.977 385.917a8.077 8.077 0 0 0 8.077 8.077 8.077 8.077 0 1 0-8.077-8.077M260.504 385.917a8.077 8.077 0 0 0 8.077 8.077 8.077 8.077 0 1 0-8.077-8.077M233.9 364.757a8.077 8.077 0 0 0 8.078 8.077 8.077 8.077 0 1 0-8.077-8.077"/></g><path fill="#1d2421" d="m282.848 385.66-16.451-16.32h49.736l6.217-29.259-16.45-16.32h88.883l-9.218 45.58h29.086l-9.218 45.579h.102l-9.218 45.58h.102l-9.218 45.579h.102l-10.564 52.238H247.868L255.5 522.4l-16.45-16.321h19.348l6.218-29.259-16.451-16.32h19.35l6.217-29.26-16.451-16.32h19.35z"/><g fill="#fff"><path d="M406.079 376.352H283.422l7.08 7.025-6.628 31.189H398.35zM386.21 330.773h-63.286l7.08 7.024-6.627 31.19h55.105zM396.963 421.932H274.306l7.08 7.024-6.628 31.19h114.477zM387.847 467.512H265.19l7.08 7.024-6.628 31.189H380.12zM378.73 513.091H256.075l7.08 7.025-6.627 31.189h114.476z"/></g><g fill="#fff"><path d="M238.69 647.599h3.83V625h-3.48l-6.83 5.682 2.235 2.649 4.245-3.926zM263.426 647.599l5.777-9.097q.63-.982 1.101-1.957c.314-.654.559-1.325.735-2.022.18-.691.266-1.43.27-2.212-.004-1.203-.201-2.272-.59-3.224-.393-.947-.941-1.756-1.66-2.42-.712-.666-1.563-1.171-2.542-1.522-.979-.346-2.064-.527-3.25-.527q-1.748.007-3.208.548a7.4 7.4 0 0 0-2.548 1.554 7 7 0 0 0-1.681 2.436q-.599 1.421-.607 3.186c.005.99.17 1.915.5 2.783q.495 1.3 1.405 2.298c.6.66 1.319 1.18 2.149 1.558q1.245.567 2.745.575.389-.001.787-.043a5 5 0 0 0 .745-.128q.343-.086.574-.212l.064.064-5.426 8.362zm3.862-15.225a4.1 4.1 0 0 1-.324 1.602 4.14 4.14 0 0 1-2.192 2.191q-.749.319-1.601.325a4.1 4.1 0 0 1-1.601-.325 4.14 4.14 0 0 1-2.192-2.191 4.114 4.114 0 0 1 2.192-5.394q.749-.318 1.6-.325.853.007 1.602.324a4.15 4.15 0 0 1 2.192 2.192c.212.495.319 1.032.324 1.601M278.778 636.3q.008 2.666.431 4.58c.282 1.277.655 2.341 1.128 3.203q.71 1.285 1.58 2.07.876.782 1.793 1.175a7.3 7.3 0 0 0 1.76.532c.56.09 1.054.127 1.48.122.425.005.92-.032 1.478-.122a7.3 7.3 0 0 0 1.761-.532c.612-.261 1.207-.655 1.793-1.176q.87-.783 1.58-2.07c.473-.861.85-1.925 1.127-3.202q.423-1.914.431-4.58-.008-2.665-.43-4.58c-.277-1.277-.655-2.34-1.129-3.202q-.71-1.286-1.58-2.07c-.585-.52-1.18-.915-1.792-1.175a7.3 7.3 0 0 0-1.76-.532 8.7 8.7 0 0 0-1.48-.123 9 9 0 0 0-1.479.123q-.844.134-1.76.532-.917.392-1.793 1.175-.87.784-1.58 2.07c-.473.862-.846 1.925-1.128 3.202q-.423 1.915-.43 4.58m3.83 0c0-.473.016-1 .054-1.569.042-.575.112-1.165.223-1.766.107-.601.255-1.181.458-1.74a6 6 0 0 1 .776-1.505q.48-.672 1.181-1.064c.463-.26 1.01-.394 1.65-.399.638.005 1.186.138 1.654.399q.695.392 1.175 1.064c.32.441.58.947.777 1.505q.303.838.463 1.74c.106.601.175 1.191.218 1.766.037.57.058 1.096.053 1.57.005.473-.016.994-.053 1.568a18 18 0 0 1-.218 1.767q-.16.9-.463 1.739a6 6 0 0 1-.777 1.505 3.6 3.6 0 0 1-1.175 1.064c-.468.261-1.016.394-1.655.4q-.956-.009-1.649-.4a3.6 3.6 0 0 1-1.18-1.064 6 6 0 0 1-.777-1.505 10.5 10.5 0 0 1-.458-1.74 16 16 0 0 1-.223-1.766 24 24 0 0 1-.054-1.569M310.473 647.599l5.777-9.097q.63-.982 1.1-1.957c.315-.654.56-1.325.735-2.022.18-.691.266-1.43.271-2.212-.005-1.203-.202-2.272-.59-3.224-.394-.947-.942-1.756-1.66-2.42-.713-.666-1.564-1.171-2.543-1.522-.979-.346-2.064-.527-3.25-.527q-1.747.007-3.208.548a7.4 7.4 0 0 0-2.548 1.554 7 7 0 0 0-1.68 2.436q-.6 1.421-.607 3.186c.004.99.17 1.915.5 2.783q.495 1.3 1.404 2.298a6.55 6.55 0 0 0 2.15 1.558q1.244.567 2.744.575.389-.001.787-.043a5 5 0 0 0 .745-.128q.343-.086.575-.212l.064.064-5.427 8.362zm3.861-15.225a4.1 4.1 0 0 1-.324 1.602 4.14 4.14 0 0 1-2.192 2.191q-.749.319-1.6.325a4.1 4.1 0 0 1-1.602-.325 4.14 4.14 0 0 1-2.192-2.191 4.114 4.114 0 0 1 2.192-5.394q.749-.318 1.601-.325c.57.005 1.101.112 1.601.324a4.14 4.14 0 0 1 2.192 2.192c.213.495.319 1.032.324 1.601"/></g><g fill="#fff"><path d="m85.7 222.878 23.932-5.185 4.963-31.818 31.54-5.586c21.637-3.833 45.123-18.576 46.25-44.577.625-14.384-8.786-22.627-21.446-25.531-7.02-1.61-15.417-1.05-24.068.649l-43.161 8.48zm31.5-54.897 5.5-35.26 27.363-5.023c10.082-1.851 20.537 2.079 19.098 14.11-1.655 13.841-13.184 19.209-23.88 21.13zM206.136 204.115l23.812-1.744 6-101.782-21.71 1.51zM341.986 109.698c-9.626-7.318-26.776-12.478-39.761-12.478-22.773 0-43.81 11.245-43.373 30.649.462 20.605 22.868 25.777 43.03 31.261 8.491 2.31 17.755 6.395 17.686 13.376-.081 8.323-7.013 10.34-17.07 11.01-9.82.654-26.46-4.115-34.561-10.315l-13.815 16.366c10.428 9.484 31.342 13.629 46.71 13.629 24.307 0 44.618-8.056 44.66-30.018.04-21.463-21.619-29.49-41.626-35.19-8.04-2.29-20.548-5.47-20.26-12.567.298-7.298 8.229-9.428 18.212-9.428 8.263 0 22.584 4.235 28.448 9.831zM350.167 204.1l26.687 2.176 6.496-13.016 54.852 7.844 7.677 15.205 26.502 5.063-59.458-112.195-8.119-1.272zm40.928-25.699 18.915-36.83 20.115 42.182z"/></g><g fill="#fff"><path d="M98.595 232.58c-1.504-.606-3.484-.895-6.446-.6-4.339.43-8.395 2.663-9.902 5.998-1.387 3.07.16 5.128 2.797 5.872 1.05.297 4.13.517 6.195.58 1.325.04 2.174.335 1.972 1.535-.278 1.644-2.29 2.502-4.086 2.704-2.274.256-3.76.256-5.62-.532l-2.953 3.677c2.121.954 5.509 1.452 8.98.788 4.812-.921 8.233-3.46 8.842-7.536.334-2.234-.939-3.939-2.868-4.458-1.156-.31-3.178-.228-5.512-.456-1.078-.105-3.14-.21-2.96-1.545.292-2.146 3.097-2.573 4.374-2.768 1.263-.193 3.643.11 4.913.493zM112.059 247.608l5.022-.877.365-5.874 6.065-.958c4.116-.651 8.082-2.915 8.58-7.761.501-4.89-3.826-6.595-7.908-5.913l-10.102 1.687zm6.065-16.736 5.497-.895c1.591-.26 4.12.06 3.92 2.638-.16 2.076-2.102 3.429-4.173 3.776l-5.71.956zM144.464 232.492c-.193 6.328 5.207 9.323 11.293 8.38 6.069-.939 11.688-5.011 11.88-11.572.193-6.562-5.224-9.32-11.293-8.38-3.804.589-7.276 2.4-9.567 5.276a10.45 10.45 0 0 0-2.313 6.296m4.78-.542c.112-3.843 3.305-6.365 6.987-6.935 3.663-.567 6.74.986 6.628 4.827s-3.326 6.368-6.988 6.935c-3.68.57-6.74-.984-6.628-4.827M181.645 237.744l5.09-.524.235-6.034 5.44-.635 4.221 5.597 5.971-.628-5.683-6.458c2.401-.632 4.089-2.884 4.358-5.136.31-2.593-.5-4.298-1.73-5.373-1.683-1.474-4.03-1.77-6-1.564l-10.632 1.119zm5.632-16.5 5.522-.54c2.254-.22 3.835.904 3.717 2.804-.181 2.914-2.728 3.372-4.325 3.565l-5.108.617zM220.82 234.496l4.952-.312.048-15.813 7.113-.433.069-3.828-18.71 1.179-.068 3.828 7.04-.434zM246.744 232.788h4.947v-19.177h-4.713zM267.38 232.695l4.946.022-.25-11.894h.063l14.983 12.195.834.004v-19.636l-4.713-.022v10.84h-.064l-14.221-11.372-1.345-.007zM324.507 222.467l-11.37-.54.099 3.678 6.607.31c.154 1.588-2.048 4.001-5.722 3.827-2.706-.129-4.722-1.226-5.886-3.79a6.5 6.5 0 0 1-.564-2.503q-.03-1.35.431-2.454a5.1 5.1 0 0 1 1.36-1.89c1.338-1.175 3.192-1.59 5.029-1.503 2.005.094 3.489.635 5.042 2.083l3.172-3.087c-2.53-2.087-5.217-2.763-8.319-2.904q-2.644-.122-4.834.475-2.195.596-3.788 1.84a8.24 8.24 0 0 0-2.438 3.06q-.846 1.814-.799 4.13.078 2.316 1.022 4.22c1.974 3.966 5.696 6.275 9.975 6.43 6.465.234 11.9-3.254 10.983-11.382M374.395 220.88c-2.285-2.188-5.203-3.52-8.06-3.792-5.848-.555-11.322 2.9-11.345 9.324-.025 6.626 6.42 10.921 11.993 11.257 2.94.178 5.743-.443 7.764-1.872l-2.489-3.44c-1.32.94-3.692 1.168-5.287 1.041-3.51-.278-7.027-3.143-7.228-6.726-.215-3.844 2.783-5.714 6.086-5.402 2.032.191 3.865 1.17 5.575 2.643zM388.63 239.735l16.318 1.948-.153-3.994-11.35-1.378-.6-15.642-4.97-.57zM436.356 227.522l-4.857-.787.76 11.695c.176 2.723-2.041 3.563-4.61 3.147-2.289-.37-5.24-2.044-5.414-4.732l-.76-11.695-4.856-.787.77 10.924c.507 7.2 5.742 9.677 10.515 10.45 5.068.82 9.621-1.617 9.222-7.292zM452.76 249.961l11.205 2.378q1.23.26 2.43.343a10.7 10.7 0 0 0 2.275-.07q1.073-.16 1.881-.609c.54-.3.955-.723 1.242-1.261.287-.539.412-1.216.358-2.03-.133-2.047-2.122-4.924-4.358-5.422 1.857-.406 2.745-1.867 2.649-3.349-.308-4.706-4.995-6.566-8.587-7.328l-10.37-2.2zm3.792-14.857 5.477 1.14c1.358.283 3.392 1.04 3.504 2.759.107 1.643-1.474 2.042-2.844 1.746l-5.686-1.226zm.674 7.362 5.698 1.206c1.45.307 4.06 1.547 4.186 3.48.114 1.75-1.72 1.895-3.19 1.583l-6.389-1.355z"/></g></g></svg>