<svg xmlns="http://www.w3.org/2000/svg" width="300" height="299.258" viewBox="0 0 300 299.258"><g fill-rule="evenodd"><path fill="#0232a0" d="M150 1a149 148.629 0 0 1 149 148.63A149 148.629 0 1 1 150 1"/><path fill="#fff" d="M150 4.947a145.053 144.682 0 0 1 145.054 144.682A145.053 144.682 0 1 1 150 4.947"/><path fill="#0232a0" d="M150.071 8.894a140.86 140.618 0 0 1 140.86 140.618A140.86 140.618 0 1 1 150.071 8.894"/><path fill="#fff" d="M150.103 51.474a98.268 98.044 0 0 1 98.268 98.044 98.268 98.044 0 1 1-98.268-98.045z"/><path fill="#0232a0" d="M149.9 55.59a94.118 93.887 0 0 1 94.118 93.888A94.118 93.887 0 1 1 149.9 55.59"/><path fill="#fff" d="M149.902 59.234a90.397 90.244 0 0 1 90.397 90.244 90.397 90.244 0 1 1-90.397-90.244"/><path fill="#fff" d="M170.938 189.935c-11.805 3.734-23.14 8.78-33.636 15.4-13.129 8.28-23.269 16.945-32.017 29.951l-4.67 6.942L42.147 94.411l4.6-1.373c20.046-5.987 41.434-7.28 62.173-4.973 15.031 1.672 29.687 5.272 43.817 10.658l1.762.672 2.302 5.486c9.52 2.994 19.211 5.62 28.991 7.583 8.878 1.783 18.095 3.09 27.161 3.198 14.388.172 23.971-1.926 30.77-9.487 3.204-3.563 5.532-7.588 7.566-14.782 3.9 8.114 6.084 16.539 6.267 25.91.222 11.328-2.69 23.013-7.994 32.498-5.933 10.607-14.216 19.07-24.086 26.073-14.05 9.968-30.883 16.615-47.35 21.365l-3.83 1.106z"/><path fill="#0232a0" d="m48.007 97.256 53.625 135.574c9.345-13.895 19.985-22.807 33.321-31.219 11.257-7.1 24.056-12.846 38.575-17.061l3.378 8.46c18.338-5.29 33.844-12.086 46.023-20.726 9.776-6.937 17.382-14.962 22.79-24.632 6.942-12.41 9.852-29.892 5.167-44.511-6.13 12.498-19.852 17.14-37.985 16.924-17.034-.204-37.775-4.687-59.372-11.604l-2.36-5.624c-14.165-5.4-28.395-8.802-42.736-10.397-19.893-2.212-40.752-1.06-60.426 4.816z"/><path fill="#fff" d="M242.508 116.921c-2.922 2.616-6.712 4.21-11.397 5.329-5.504 1.314-11.947 1.836-18.257 1.761-9.591-.114-19.983-1.391-29.376-3.277-11.377-2.285-21.003-4.442-33.304-8.23l-2.656-6.739c-12.983-4.807-25.749-7.116-39.521-8.648-18.197-2.023-37.121-.223-52.699 4.015l10.66 26.702c9.21-3.424 20.149-5.527 32.827-6.53 15.858-1.253 34.36-.729 55.67 2.01l2.293 5.856c23.117 2.51 43.114 2.848 58.517-.106 11.604-2.225 22.208-6.095 27.243-12.143M86.054 178.176l17.228 43.158c8.18-9.863 15.843-16.34 28.225-24.15 14.097-8.891 31.182-15.392 44.815-18.56l3.142 7.861c14.697-3.814 28.14-8.706 40.421-17.42 8.85-6.278 16.917-14.052 22.238-23.567 2.226-3.98 4.086-8.289 5.305-12.92-8.496 9.288-19.12 15.974-30.122 20.954-14.03 6.351-29.447 10.086-46.145 12.018l-2.45-6.175c-18.387-.267-31.857.966-46.707 4.304-12.685 2.85-26.601 7.828-35.95 14.497"/><path fill="#d9e0e7" d="M160.509 115.484a291 291 0 0 1-10.335-2.98l6.596 16.669q5.07.551 9.934.957zm10.653 50.065 8.302 20.936c3.36-.872 6.655-1.8 9.885-2.819l-8.253-19.51a202 202 0 0 1-9.934 1.393"/><path fill="#082e86" d="m156.764 129.172 14.397 36.377a202 202 0 0 0 9.935-1.393l-14.392-34.026a402 402 0 0 1-9.94-.958"/><path fill="#fff" d="M278.794 142.611h-2.24l-3.497 1.148.538 2.23 2.418-.668v11.491h2.781zm-252.75-.075h-2.24l-3.499 1.147.538 2.23 2.419-.668v11.491h2.782zm14.817 6.798c-.001-2.063-.313-3.72-1.285-5.025-.913-1.227-2.412-2.054-4.497-2.054-2.845 0-5.244 2.105-5.244 5.092 0 2.853 2.417 4.436 5.087 4.44 1.387.002 2.455-.526 3.11-1.218-.094 2.133-1.248 3.815-3.104 3.901-1.236.058-2.267-.456-3.261-1.425l-1.427 2.102c1.537 1.121 2.832 1.728 4.711 1.726 1.533-.001 3.001-.744 4.024-1.866 1.373-1.508 1.887-3.734 1.886-5.673m-5.56.225c-1.308-.053-2.64-.803-2.709-2.294-.075-1.619.957-2.568 2.539-2.575 1.907-.008 2.867 1.165 2.81 2.45-.055 1.288-1.055 2.483-2.64 2.419m229.57 4.737c1.7-1.532 4.094-3.045 5.345-5 .443-.692.793-1.59.788-2.41-.01-1.693-.915-3.14-2.259-3.873-.806-.44-1.82-.624-2.756-.606-.909.018-1.948.373-2.76.862-.891.538-1.543 1.33-2.185 2.31l1.934 1.47c.772-1.138 1.698-2.178 3.082-2.175 1.182.004 2.11.868 2.122 2.155.01 1.098-.746 2.051-1.526 2.707l-5.836 4.901v2.1h10.293v-2.44zM147.132 39.55l4.61.164.226-6.325 3.393.093 4.064 6.507 5.41.194-4.736-7.37c2.57-.697 4.416-3.046 4.532-6.08.09-2.353-.743-4.052-1.928-5.147-1.623-1.503-4.04-1.946-6.844-2.046l-8.002-.286zm8.81-15.827c2.138.077 4.059.657 3.976 2.98-.084 2.332-2.043 2.766-4.179 2.69l-3.623-.13.202-5.67zm-54.55 27.592 4.256-1.779-2.354-5.63 2.28-.984c3.643-1.573 5.073-3.11 5.728-4.806.656-1.696.567-3.485-.19-5.341a6.83 6.83 0 0 0-4.173-3.922c-2.102-.684-4.275-.164-6.863.918l-6.547 2.737zm1.03-17.914c1.974-.825 3.588-.616 4.367 1.248.813 1.943-.082 3.274-2.191 4.156l-2.926 1.222-2.246-5.374zM65.296 79.617l5.02-5.14c1.635-1.672 3.02-3.453 3.548-5.796.743-3.292.02-6.798-2.752-9.506-2.65-2.589-5.711-3.334-8.748-2.82-2.68.452-4.592 1.902-6.427 3.78l-5.167 5.289zm-5.94-17.086c2.347-2.402 5.974-2.394 8.43.006 2.487 2.43 2.557 5.978.182 8.409l-2.416 2.472-8.612-8.414zM126.5 21.416c6.01-1.437 11.67 2.069 13.025 7.737s-2.157 11.324-8.116 12.792c-5.96 1.468-11.672-2.069-13.027-7.737s2.107-11.355 8.118-12.792m1 4.185c3.367-.805 6.44 1.323 7.237 4.662.798 3.339-1.006 6.607-4.345 7.43-3.338.824-6.44-1.322-7.237-4.66-.798-3.34.98-6.627 4.345-7.432m116.704 31.741c3.987 4.722 3.4 11.355-1.053 15.114s-11.084 3.167-15.076-1.496-3.4-11.355 1.052-15.115c4.453-3.76 11.09-3.225 15.077 1.497m-3.288 2.777c2.232 2.644 1.714 6.345-.91 8.56-2.622 2.214-6.354 2.071-8.59-.54-2.238-2.61-1.715-6.345.908-8.56 2.623-2.214 6.359-2.105 8.592.54m-51.12-35.182-16.393-3.896-.982 4.135 5.91 1.404-3.713 15.624 4.544 1.08 3.713-15.624 5.94 1.411zm13.19 5.026-4.272-1.744-7.676 18.802 4.27 1.744zM84.518 37.278l-12.803 8.527 11.258 16.903 12.972-8.64-2.3-3.453-9.132 6.082-2.216-3.326 7.908-5.267-2.27-3.41-7.91 5.267-2.17-3.26 8.963-5.97zm144.298 6.915-4.312-2.642-11.678 9.23 2.883-14.621-4.376-2.683-3.694 21.645 3.52 2.158zM205.26 244.346c-1.742 1.148-3.096 2.679-3.414 4.63-.218 1.333-.004 2.859.99 4.432.868 1.377 2.18 2.176 3.61 2.406 1.202.193 2.414-.05 3.7-.33 1.66-.361 5.182-1.988 6.183-.253.642 1.113-.347 2.23-1.225 2.808-2.076 1.369-4.619 1.376-6.708 1.102l-.748 4.117c4.041.82 7.698-.351 9.738-1.796 1.633-1.156 2.93-2.5 3.413-4.335.375-1.426.253-3.185-.9-4.945-1.181-1.8-2.923-2.45-4.72-2.427-1.633.019-3.391.592-4.917.996-.989.262-3.434 1.127-4.018-.576-.352-1.032.424-1.916 1.201-2.432 1.734-1.15 3.554-1.179 5.804-1.003l.263-4.155c-2.968-.468-6.096.34-8.252 1.76m-10.751 6.033-14.536 5.034 6.648 19.19 14.727-5.101-1.358-3.92-10.369 3.591-1.308-3.777 8.979-3.11-1.34-3.872-8.98 3.11-1.282-3.7 10.177-3.525zm-9.522 1.803 3.34-1.156 2.883-4.175-4.434-.254zm-10.056 4.694-5.02.615-3.393 14.494-6.845-13.238-5.095.625 10.582 19.24 4.099-.504zm-25.738 22.754-4.86-.465-1.378-4.612-8.328-.798-2.267 4.263-4.713-.452 10.67-19.456 4.112.395zm-7.497-9.293-1.889-6.324-3.108 5.845zm-44.629-2.335-4.255-2.394.608-4.774-7.292-4.102-3.798 2.98-4.127-2.322 17.634-13.47 3.6 2.026zm-3.091-11.534.834-6.546-5.209 4.085zm22.449-3.103-4.4-1.386-6.101 19.37 13.989 4.407 1.246-3.957-9.589-3.021zM91.484 133.34l3.456 8.718 5.046-1.205-1.935-4.895 3.057-.538c1.487-.271 3.23-.485 4.74-.255a10.6 10.6 0 0 1 4.209 1.59c3.003 1.975 5.357 6.27 4.258 9.904-.514 1.699-1.772 3.058-4.062 3.792l-5.744 1.842-2.187-5.533-4.955 1.418 3.828 9.654 11.043-3.351c3.618-1.097 6.774-4.126 6.848-8.143l.201-11.039 6.88 7.702-2.934.327v3.847l5.782-.739 3.444 4.03 3.823-.51-17.147-19.182-3.527.336-.175 5.567c-1.775-2.513-4.258-3.858-7.23-4.523-4.635-1.038-10.537-.164-16.72 1.186z"/></g></svg>