<svg xmlns="http://www.w3.org/2000/svg" width="273.718" height="365.34" viewBox="0 0 164.918 220.122"><path fill="#fff" d="M162.931 23.378c0-8.41-5.679-10.963-13.812-13.082-11.895-3.103-36.373-8.312-66.66-8.312s-54.771 5.202-66.667 8.305c-8.126 2.126-13.805 4.672-13.805 13.09v117.797c.105 9.789 4.752 19.083 12.433 24.873l63.194 47.912 4.845 3.67 4.85-3.67 63.213-47.924c7.762-5.852 12.41-15.184 12.41-24.948z"/><path fill="#262f61" d="M82.458 1.982c-30.287 0-54.77 5.21-66.666 8.311-8.126 2.12-13.805 4.666-13.805 13.083v117.796c.099 9.789 4.746 19.083 12.433 24.873l63.193 47.91 4.845 3.671 4.85-3.67 63.213-47.923c7.761-5.852 12.408-15.184 12.408-24.941V23.376c0-8.41-5.679-10.963-13.811-13.083-11.896-3.102-36.374-8.311-66.66-8.311m-1.761 6.074 1.91 5.902h6.204l-5.018 3.646 1.915 5.895-5.011-3.645-5.024 3.645 1.916-5.895-5.018-3.646h6.204zm-67.018 8.602 1.915 5.902H21.8l-5.018 3.646 1.916 5.895-5.018-3.645L8.66 32.1l1.915-5.895L5.56 22.56h6.204zm132.602 0 1.916 5.902h6.204l-5.018 3.646L151.3 32.1l-5.018-3.646-5.018 3.646 1.916-5.895-5.018-3.646h6.205zm-29.235 9.9q.88.12 1.742.247c1.718.241 3.381.501 4.988.76a226 226 0 0 1 4.683.817l-42.268 32.09v-21.98c6.655 3.948 11.148 3.546 14.046 1.705 1.656-1.05 2.793-2.577 3.504-4.023 7.211 2.12 15.214-2.355 13.305-9.616zM39.609 27.82c.055.618.18 1.205.352 1.768l.018.074c.006.024.019.043.025.068 1.848 5.617 9.362 8.527 16.284 6.488 1.291 2.62 4.387 4.92 8.706 5.519 2.905.401 6.366.024 10.197-1.546v28.637l-26.455 20.09c.086-.636.142-1.316.142-2.052v-.822c2.892-1.786 5.444-5.265 6.723-9.665a19.7 19.7 0 0 0 .785-5.703 7.8 7.8 0 0 1-1.625.5c-1.403.272-2.608.192-2.614.192 2.317-.18 3.997-1.063 5.091-1.879a16 16 0 0 0 1.045-.976c2.286-2.336 3.794-5.049 4.69-8.194l4.351-15.215a6.08 6.08 0 0 0-5.692 2.8l-2.1 3.312-2.058 3.256c-.464.78-1.292 1.484-2.231 1.99-1.446-1.13-2.571-2.02-3.461-2.719q-.204-.159-.389-.309l-1.372-5.76 1.996-3.559a5.1 5.1 0 0 0 .569-3.343 5.2 5.2 0 0 0-.798-1.983c-.327-.482-1.007-.593-1.501-.278l-5.012 3.2a2.3 2.3 0 0 0-.42-.34 1.36 1.36 0 0 0-.983-.19c-.507.086-1.069.413-1.73.858l-1.28.933-1.903 1.39-1.458-.055-1.014-.043c-.988 0-1.384 1.78-.47 3.09.76 1.087 1.36 2.496 1.768 4.196.006.024.019.05.025.074q.035.186.08.37c.018.1.043.192.062.29.321 1.583.488 3.394.488 5.408 0 4.5-2.422 14.121-5.543 20.393-.148.272-.303.544-.451.822l-2.348 3.912c-.377.568-.29 1.427.154 2.045.322.445.835.766 1.502.766 0 0 1.885 2.373 2.478 6.94.272 2.076.278 4.61-.284 7.577l-4.45 3.38-4.721 3.584.006-76.288a220 220 0 0 1 7.694-1.68 248 248 0 0 1 7.131-1.323zm113.499 12.506-2.017 1.545-4.293 3.284zm-15.545 11.897v115.193l-22.052 16.716V69.101l.002-.002zm-33.976 2.942 1.915 5.895h6.205l-5.019 3.647 1.916 5.9-5.017-3.645-5.018 3.646 1.915-5.901-5.017-3.647h6.204zM13.679 66.881l1.915 5.895H21.8l-5.018 3.646 1.915 5.901-5.017-3.646-5.018 3.64 1.916-5.895-5.018-3.647h6.204zm79.777 19.096v114.871l-10.998 8.337-11.054-8.379v-97.952L49.35 119.73v64.354l14.363 10.89-45.633-34.59q-.002-.002-.005-.005l9.22 6.985v-30.754l22.054-16.882 22.054-16.877zm-33.202.462 1.922 5.902h6.199l-5.018 3.646 1.916 5.895-5.019-3.64-5.017 3.64 1.922-5.895-5.024-3.646h6.204zm-46.575 33.5 1.915 5.901H21.8l-5.018 3.646 1.916 5.896-5.018-3.64-5.018 3.64 1.916-5.896-5.018-3.646h6.204zm12.047 17.87-6.682 5.116-7.658 5.857 7.657-5.861zM10.318 149.6c1.043 2.999 2.664 5.755 4.788 8.077-2.125-2.32-3.746-5.077-4.789-8.075zm141.017 6.272c-.078.103-.153.209-.233.311q-.13.164-.263.325.133-.162.264-.327c.08-.101.154-.206.232-.31m-2.208 2.529a23 23 0 0 1-2.264 1.966q-.018.009-.025.018l-8.376 6.35 8.402-6.37a23 23 0 0 0 2.263-1.964"/><path fill="#ce3524" d="M156.104 128.806V38.033l-5.011 3.837-13.528 10.351v115.196l9.3-7.05a23.2 23.2 0 0 0 4.24-4.184c3.189-4.067 5-9.146 5-14.405zm-40.591-59.707L93.458 85.976v114.875l22.055-16.716zM49.35 119.732v64.356l22.055 16.722v-97.954zm-22.056 16.88-8.25 6.315-8.725 6.674c1.483 4.264 4.134 8.04 7.743 10.772l9.232 6.995z"/></svg>