<svg xmlns="http://www.w3.org/2000/svg" width="142" height="144" viewBox="0 0 142 144"><path fill-rule="evenodd" stroke="#000" stroke-width=".18927" d="M14.526 7.165c9.479 4.16 25.036 3.668 35.471-4.207 14.59 10.69 28.634 9.593 42.023 0 8.927 6.452 22.67 9.207 35.567 4.342l5.781 8.033c-15.075 20.146-9.495 39.404 6.054 56.351l-6.529 6.621c1.48 43.453-32.175 53.827-51.5 54.904l-10.391 8.501-10.313-8.374c-34.501-2.98-52.717-21.181-51.59-54.92l-6.714-6.782C15.503 57.446 25.36 38.058 8.51 15.328z"/><path fill="#004d98" fill-rule="evenodd" d="M15.311 77.542h111.017c2.917 30.72-16.6 47.313-46.28 48.944l-18.859.048c-28.395-2.04-49.55-17.033-45.878-48.992"/><g fill="#a50044"><path d="M63.17 77.911h15.725v49.09H63.17zM31.87 77.911h15.726v43.872H31.871z"/><path d="M37.354 119.535h10.242v4.52H37.354zm56.935-41.624h15.726v43.872H94.289z"/><path d="M94.29 119.535h10.242v4.52H94.29z"/></g><path fill="#fff" fill-rule="evenodd" d="M70.52 17.316v43.602l-52.993.384 5.462-20.987-6.804-25.108 33.54-4.312z"/><path fill="#ffed02" fill-rule="evenodd" d="M71.288 17.316v43.602l52.994.384-5.462-20.987 6.803-25.108-33.54-4.312z"/><path fill="#db0030" d="M39.9 12.137h15.194v48.511H39.899z"/><path fill="#db0030" d="M70.52 30.233v15.194H23.242V30.233zM76.043 15.576h5.62v44.756h-5.62zm10.668-3.206h5.62v48.068h-5.62zm10.738 2.71h5.62v45.458h-5.62zm10.637 1.665h5.62v43.753h-5.62z"/><path fill="#edbb00" fill-rule="evenodd" stroke="#deb405" stroke-width=".17753525999999997" d="M49.909 6.412c-9.787 7.173-25.274 7.928-34.164 4.341l-3.56 4.584c15.275 21.493 6.499 43.117-5.613 56.36l5.577 5.904c-2.263 32.396 16.643 51.132 49.879 53.06l9.008 7.524 8.99-7.642c19.355-.334 53.293-11.189 49.636-52.99l5.607-5.808c-14.224-15.775-19.127-37.382-5.382-56.408l-3.342-4.555c-12.161 3.997-26.075 1.782-34.447-4.27-12.558 8.997-28.505 9.926-42.19-.1zm42.301 6.157c7.55 4.688 15.894 6.022 30.278 4.761-7.203 12.462-7.98 27.307-1.603 41.64l-99.816-.06c5.368-12.807 6.6-27.544-1.816-41.864 10.374 1.506 20.508 1.145 30.614-4.353 13.708 8.047 27.81 8.194 42.343-.124zM17.526 78.027h107.038c2.813 29.619-16.006 45.614-44.62 47.187l-18.188.047c-27.377-1.968-47.77-16.42-44.23-47.234z"/><path fill="none" stroke="#000" stroke-width=".75708" d="M19.137 17.202c8.416 14.32 7.184 29.057 1.815 41.864l99.814.06c-6.377-14.334-5.597-29.179 1.606-41.64-14.384 1.26-22.725-.072-30.275-4.76-14.534 8.318-28.64 8.167-42.348.12-10.106 5.499-20.237 5.862-30.612 4.356zm-1.612 60.825H124.56c2.813 29.619-16.005 45.617-44.62 47.19l-18.183.046c-27.377-1.968-47.774-16.423-44.233-47.236zM70.938 18.7v40.444"/><path fill="#edbb00" stroke="#000" stroke-width=".7608900000000001" d="M85.702 101.111a14.553 14.553 0 1 1-29.105 0 14.553 14.553 0 1 1 29.105 0z"/><g fill="none" stroke="#000" stroke-width="3.5"><path stroke-width=".662445" d="M62.753 89.253C61.053 95.444 60 101.54 64.9 104.47c3.424 2.047 5.739-2.127 6.38-3.744"/><path stroke-width=".662445" d="M57.68 106.975c2.87-.13 4.366-.367 6.206-3.162M71.16 100.833c2.88-1.77 5.44-.913 6.63 3.517 2.801-1.126 5.501 1.036 6.205 3.222"/><path stroke-width=".662445" d="M77.849 104.35c-2.127 5.134-7.72 7.511-15.574 8.294m8.89-11.6c-1.767-1.618-4.485-3.47-.525-8.226-1.68-2.13-2.138-4.21.058-6.184"/><path stroke-width=".662445" d="M85.633 101.977c-2.584-4.568-8.6-10.899-14.993-9.218"/></g><path d="M50.8 61.567v.053h-2.643v13.752h2.857v-5.708h4.075v-2.91h-4.075v-2.23h7.032v-2.957z"/><path fill-rule="evenodd" stroke="#000" stroke-width=".037854" d="m72.428 65.875 2.565-1.34c-1.637-3.618-8.273-4.647-10.457 0-2.252 5.545.142 10.695 4.502 11.197 2.77.404 4.965-.952 5.898-3.361L72.4 70.918c-.675 1.682-3.25 2.84-5.214.028-.605-1.257-.76-3.191-.085-5.071 1.61-2.213 3.964-1.974 5.327 0z"/><path fill-rule="evenodd" stroke="#000" stroke-width=".18927" d="m82.231 61.602.053 13.876 7.554-.03c2.457-.343 5.68-4.367 1.904-7.493 1.996-1.76 1.746-5.522-2.247-6.323zm2.904 2.733h3.762c1.654.476 1.163 2.066.053 2.336h-3.815zm.03 5.045 3.957.053c1.957.583 1.515 2.814.059 3.194l-3.986-.03z"/></svg>