<svg xmlns="http://www.w3.org/2000/svg" width="288.222" height="350.134" viewBox="0 0 288.222 350.134"><path d="M235.923 174.435v-4.717l4.66-.899v4.662zm-178.08 35.38v-28.584l4.885-.955v24.317l7.75-1.573v4.269zm15.668-3.088v-28.585l13.141-2.64v4.268l-8.255 1.629v7.413l6.346-1.291v4.268l-6.346 1.291v8.368l8.817-1.741v4.268zm27.574-34.089 4.83-.954-5.953 29.764-4.942 1.01-5.953-27.405 4.83-1.01 3.538 19.15zm12.018 15.612 3.931-.786-1.91-11.906zm-1.573 10.895-4.773.955 5.279-29.652 6.065-1.235 5.28 27.574-4.718.955-.899-6.178-5.391 1.067zm14.714-2.92V167.64l4.549-.899 6.009 15.163.058-16.398 4.436-.842v28.585l-4.268.842-6.29-16.623-.057 17.858zm22.632-28.81-4.717.955v-4.324l14.377-2.864v4.324l-4.718.899v24.316l-4.942 1.011zm12.58 21.79V160.62l13.141-2.64v4.325l-8.255 1.629v7.356l6.346-1.235v4.269l-6.346 1.235v8.423l8.817-1.74v4.268zm26.395-33.808 4.885-1.01v21.565c0 2.134.899 2.976 2.64 2.64 1.74-.337 2.583-1.573 2.583-3.651v-21.565l4.942-1.01v21.396q0 3.705-2.022 6.065c-1.347 1.572-3.144 2.583-5.503 3.033-2.359.506-4.212.168-5.56-.843s-1.965-2.752-1.965-5.223zm19.487 24.71v-4.66l4.661-.955v4.66zm13.983-6.851 1.741-.336 2.696-1.405c.562-.674.786-1.797.786-3.257v-12.524c0-1.516-.224-2.527-.786-2.976l-2.696-.336-1.74.336zm-4.886-23.53 7.245-1.517c2.583-.506 4.549-.168 5.84.955 1.292 1.179 1.966 3.2 1.966 6.177v11.288c0 2.976-.674 5.279-1.965 6.964-1.291 1.628-3.258 2.752-5.84 3.257l-7.246 1.405zm0 0"/><path d="M256.89 284.138c0-15.78.057-15.78 15.836-15.78 5.84 0 11.007 3.2 13.703 7.974h4.268c2.752-4.774 7.862-7.975 13.759-7.975 15.78 0 15.837 0 15.837 15.78 0 8.312-6.402 15.108-14.545 15.782a24 24 0 0 0-1.405 8.086c0 13.085 10.614 23.7 23.7 23.7 13.14 0 23.754-10.615 23.754-23.7 0-8.929-4.942-16.735-12.242-20.778l5.56-11.232c82.329 22.913 116.136 110.015 57.563 216.156a23.53 23.53 0 0 1 4.83 14.32c0 13.086-10.671 23.7-23.756 23.7-1.741 0-3.482-.169-5.11-.563-17.185 23.475-38.806 47.567-65.313 71.884-23.082 21.172-26.451 21.116-49.42.058-26.507-24.317-48.185-48.466-65.37-71.94-1.628.392-3.369.562-5.11.562-13.085 0-23.7-10.614-23.7-23.7 0-5.39 1.742-10.333 4.774-14.32-58.63-106.14-24.822-193.243 57.563-216.156l5.504 11.232c-7.3 4.043-12.187 11.85-12.187 20.779 0 13.085 10.615 23.699 23.7 23.699s23.699-10.614 23.699-23.7c0-2.863-.506-5.56-1.405-8.086-8.087-.675-14.489-7.47-14.489-15.78m40.098 266.867c3.706-1.179 6.907-2.864 9.266-4.55-2.808 2.023-5.897 3.595-9.266 4.55m9.266-4.55 2.471-2.02zm0 0" style="display:inline;stroke:gray;stroke-width:1.13386;stroke-dasharray:none;stroke-opacity:1" transform="translate(-144.46 -267.79)"/><path fill="#fff" d="m235.923 174.435 4.66-.954v-4.662l-4.66.899zm-178.08 35.38 12.635-2.527v-4.268l-7.75 1.573v-24.317l-4.886.954zm15.668-3.088 13.703-2.752v-4.268l-8.817 1.74v-8.367l6.346-1.291v-4.268l-6.346 1.291v-7.413l8.255-1.629v-4.268l-13.141 2.64zm27.574-34.089-3.65 20.554-3.538-19.15-4.83 1.01 5.953 27.407 4.942-1.011 5.953-29.765zm10.445 26.507.843-6.514 5.391-1.067.899 6.177 4.717-.954-5.279-27.574-6.065 1.235-5.279 29.652zm14.714-2.92 4.437-.899.057-17.858 6.29 16.623 4.268-.842v-28.585l-4.436.842-.058 16.398-6.009-15.163-4.549.899zm22.632-28.81v24.317l4.942-1.01v-24.317l4.718-.899v-4.324l-14.377 2.864v4.324zm12.58 21.79 13.703-2.696v-4.268l-8.817 1.741v-8.424l6.346-1.235v-4.268l-6.346 1.235v-7.357l8.255-1.628v-4.324l-13.141 2.639zm26.395-33.808v21.397c0 2.471.618 4.212 1.965 5.223 1.347 1.01 3.201 1.347 5.56.842 2.359-.448 4.156-1.46 5.503-3.032q2.022-2.36 2.022-6.066v-21.396l-4.942 1.01v21.565c0 2.078-.842 3.314-2.583 3.65-1.741.337-2.64-.505-2.64-2.639v-21.565zm19.487 24.71 4.661-.954v-4.661l-4.661.954zm9.097-30.382v28.529l7.245-1.405c2.583-.506 4.549-1.628 5.84-3.257 1.292-1.685 1.966-3.987 1.966-6.964V155.34c0-2.976-.674-4.998-1.965-6.177-1.291-1.123-3.258-1.46-5.84-.955zm39.368-11.85c1.01 11.57.224 24.15-2.64 37.515l-203.97 40.547c-5.671-11.906-9.827-23.419-12.635-34.426zm-142.7 50.375 2.022-12.692 1.909 11.906zm108.218-14.994v-20.498l1.741-.336 2.696.336c.562.449.786 1.46.786 2.976v12.524c0 1.46-.224 2.583-.786 3.257l-2.696 1.405zm0 0"/><path fill="#b3023d" d="M213.796 258c-11.906 16.342-26.563 33.134-44.14 50.206v-32.179c4.941-5.84 7.918-13.366 7.918-21.677a33.47 33.47 0 0 0-7.919-21.678v-37.177l44.141-8.817zm-44.14-146.856a18.9 18.9 0 0 0 6.233 1.067c2.078 0 4.043-.449 6.065-.955 2.47 5.729 7.525 10.053 13.759 11.4l18.083 3.595v16.51l-44.14 8.817zM118.662 308.15c-17.69-17.072-32.292-33.864-44.198-50.206V214.42l44.198-8.761v27.124c-4.942 5.841-7.919 13.366-7.919 21.566 0 8.255 2.977 15.78 7.919 21.62zM74.465 126.363a1679 1679 0 0 0 18.14-3.706c6.234-1.347 11.288-5.672 13.759-11.4 2.022.505 3.987.954 6.065.954 2.19 0 4.268-.392 6.234-1.01v50.486l-44.198 8.761zm0 0"/><path fill="#dca33a" fill-rule="evenodd" d="M171.003 267.884c-.28-5.335-5.616-8.705-12.467-6.795-.058-6.122-6.964-9.323-13.984-7.919-6.121-6.851-4.044-15.219 7.357-13.478 6.627 1.067 16.623 6.121 22.239 16.399-.28 4.212-1.347 8.199-3.145 11.793m-51.835 3.089c4.717 2.302 10.165-.619 11.906-7.413 5.391 3.032 11.625-1.347 13.927-8.143 8.986-1.854 15.22 4.1 7.975 13.085-4.212 5.222-13.478 11.288-25.103 11.063-3.482-2.246-6.459-5.167-8.705-8.592m7.525-41.053c-4.436 9.716-3.706 19.825-1.347 25.946 1.067 2.752 2.359 4.773 3.763 6.177-1.741 9.098-10.558 10.67-13.984 0a31.4 31.4 0 0 1-.954-7.693c0-10.053 4.942-18.982 12.523-24.43m15.725-5.503c-4.493 2.864-4.774 9.154.28 14.152-5.279 3.145-4.605 10.726.115 16.118-2.864 8.704-11.175 11.12-15.331.336-2.415-6.234-3.033-17.41 3.089-27.406a29.05 29.05 0 0 1 11.85-3.2m31.617 27.236c-6.122-8.76-15.332-13.197-21.79-14.208-2.92-.448-5.335-.336-7.245.168-7.188-6.177-3.818-14.882 7.807-11.905 3.594.954 9.378 3.93 14.095 9.097a29.66 29.66 0 0 1 7.133 16.848m-12.243 27.013 2.471-2.022zm-9.266 4.549c-2.64.786-5.448 1.178-8.368 1.178-4.436 0-8.648-.954-12.411-2.695 10.558-1.01 18.925-6.683 23.025-11.737 1.853-2.303 2.92-4.437 3.426-6.403 8.985-3.144 14.882 4.156 6.458 12.749l-.392.336-2.471 2.022a29.1 29.1 0 0 1-9.267 4.549m0 0a29.1 29.1 0 0 0 9.267-4.55c-2.36 1.686-5.56 3.37-9.267 4.55"/><path fill="#005ca3" d="M122.032 229.303V204.93l44.197-8.761v33.078c-5.896-5.167-13.646-8.312-22.07-8.312-8.48 0-16.23 3.145-22.127 8.368M71.04 253.114c-8.087-11.625-14.826-22.969-20.33-33.976l20.33-4.044zm95.19 58.35c-2.022 1.909-4.044 3.818-6.122 5.728-1.685 1.516-12.973 13.028-15.668 13.14-2.92.058-14.546-11.624-16.23-13.14-2.078-1.91-4.156-3.875-6.178-5.785v-31.954c5.897 5.166 13.647 8.367 22.127 8.367 8.424 0 16.174-3.145 22.07-8.311zm86.147-132.424c-5.391 22.8-16.735 47.848-35.155 74.186v-67.222zm-216.661-.842c-4.212-18.308-4.661-35.156-1.854-50.094 2.64-14.096 9.94-21.003 15.107-21.003a4.53 4.53 0 0 1 4.55 4.548c0 2.471-1.966 4.493-4.662 4.493H45.43l.168 14.826c-.057.058 4.999-.057 10.278-1.01a933 933 0 0 0 15.162-2.921v44.141zm181.506-51.273 15.163 3.032c3.875.73 7.3 1.067 10.333 1.01l.168-14.825h-3.425c-2.696 0-4.662-2.022-4.662-4.493 0-2.527 2.022-4.549 4.493-4.549 5.223 0 12.523 6.908 15.163 21.004.392 2.078.674 4.212.954 6.402l-38.188 7.581zm-95.19-17.297c1.797-1.011 3.37-2.303 4.718-3.763 4.717 3.931 10.782 6.234 17.409 6.29a27.1 27.1 0 0 0 17.41-6.29 20.2 20.2 0 0 0 4.66 3.763v42.568l-44.197 8.817zm0 0"/><path fill="#b0b0b0" d="M209.977 20.953c44.366 17.128 71.266 56.889 68.177 110.352-.674-37.177-17.802-66.492-46.05-83.677l-1.966-1.179c-3.706 18.252-18.7 32.404-38.02 32.404-11.456 0-21.452-4.773-28.247-12.243a32.76 32.76 0 0 0 19.543 6.459c18.14 0 32.853-14.714 32.853-32.853a32.66 32.66 0 0 0-6.29-19.263m-131.973 0c-3.932 5.391-6.234 12.074-6.234 19.263 0 18.139 14.714 32.853 32.853 32.853 7.3 0 14.096-2.415 19.543-6.459-6.795 7.47-16.791 12.243-28.248 12.243-19.318 0-34.313-14.152-38.02-32.404l-1.965 1.18C27.685 64.812 10.5 94.127 9.826 131.304 6.794 77.842 33.694 38.081 78.004 20.953"/><path fill="#fac200" d="M144.159 108.73c-7.132 0-13.478-3.146-17.859-8.088-2.695 4.83-7.862 8.143-13.871 8.143l-3.875-.506c.336-1.46.505-3.032.505-4.66l-.337-3.707 3.763.954a7.91 7.91 0 0 0 7.918-7.918v-5.335h8.143c1.293 7.469 7.806 13.14 15.613 13.14 7.862 0 14.32-5.671 15.612-13.14h8.143v5.335a7.91 7.91 0 0 0 7.918 7.918l3.707-.954-.28 3.706c0 1.629.168 3.201.504 4.661l-3.875.506c-5.953 0-11.175-3.313-13.871-8.143a23.69 23.69 0 0 1-17.859 8.087m-87.215 2.92c0-4.38-3.538-7.974-7.974-7.974-7.919 0-15.781 9.435-18.477 23.811-9.322 49.87 16.118 119.507 95.415 192.233 20.835 19.094 16.566 18.251 36.503 0 79.297-72.726 104.737-142.364 95.414-192.233-2.695-14.376-10.614-23.811-18.532-23.811-4.38 0-7.919 3.594-7.919 7.974s3.538 7.919 8.087 7.919l-.115 7.974c-8.76 0-15.893-7.132-15.893-15.893 0-8.76 7.132-15.893 15.95-15.893 15.78.058 22.631 16.006 25.44 31.73 9.266 52.902-18.59 124.561-97.83 197.23-24.429 22.464-21.284 22.464-45.713 0-79.24-72.669-107.095-144.328-97.83-197.23 2.753-15.724 9.66-31.673 25.44-31.73 8.818 0 15.95 7.133 15.95 15.893s-7.132 15.893-15.893 15.893l-.115-7.974c4.549 0 8.087-3.538 8.087-7.919m29.877-23.867 1.684-.168c8.817 0 16.006 7.188 16.006 16.005 0 7.694-5.391 14.096-12.58 15.668l-.562.115-26.675 5.28c2.92-3.539 4.717-8.087 4.717-13.03 0-7.918-4.493-14.77-11.063-18.195zm114.62 0 28.529 5.672c-6.57 3.426-11.063 10.277-11.063 18.195 0 4.942 1.797 9.491 4.717 13.03l-26.676-5.28-.562-.115c-7.188-1.572-12.58-7.974-12.58-15.668 0-8.817 7.133-16.005 16.006-16.005zm0 0"/></svg>